HIERARCHY
ROOT SpineBase
{
  OFFSET 0.000000 0.000000 0.000000
  CHANNELS 6 Xposition Yposition Zposition Zrotation Xrotation Yrotation
  JOINT SpineMid
  {
    OFFSET -0.000000 30.123601 -0.000000
    CHANNELS 3 Zrotation Xrotation Yrotation
    JOINT SpineShoulder
    {
      OFFSET 0.038548 22.404018 -0.726695
      CHANNELS 3 Zrotation Xrotation Yrotation
      JOINT Neck
      {
        OFFSET -0.004570 7.414898 -0.542172
        CHANNELS 3 Zrotation Xrotation Yrotation
        JOINT Head
        {
          OFFSET -0.211582 15.601230 -0.556853
          CHANNELS 3 Zrotation Xrotation Yrotation
          End Site
          {
            OFFSET 0 0 0
          }
        }
      }
      JOINT ShoulderLeft
      {
        OFFSET -18.340127 -2.671255 1.483145
        CHANNELS 3 Zrotation Xrotation Yrotation
        JOINT ElbowLeft
        {
          OFFSET -3.064469 -24.766772 -1.343962
          CHANNELS 3 Zrotation Xrotation Yrotation
          JOINT WristLeft
          {
            OFFSET 0.240389 -20.443415 -8.460906
            CHANNELS 3 Zrotation Xrotation Yrotation
            JOINT HandLeft
            {
              OFFSET 1.841160 -5.341451 -1.748882
              CHANNELS 3 Zrotation Xrotation Yrotation
              JOINT HandTipLeft
              {
                OFFSET 0.844266 -8.758452 -1.213114
                CHANNELS 3 Zrotation Xrotation Yrotation
                End Site
                {
                  OFFSET 0 0 0
                }
              }
              JOINT ThumbLeft
              {
                OFFSET -3.756479 -0.880100 -2.813435
                CHANNELS 3 Zrotation Xrotation Yrotation
                End Site
                {
                  OFFSET 0 0 0
                }
              }
            }
          }
        }
      }
      JOINT ShoulderRight
      {
        OFFSET 17.217235 -3.465802 -1.791793
        CHANNELS 3 Zrotation Xrotation Yrotation
        JOINT ElbowRight
        {
          OFFSET 4.001586 -25.166057 0.309122
          CHANNELS 3 Zrotation Xrotation Yrotation
          JOINT WristRight
          {
            OFFSET -3.900866 -20.721515 -6.319480
            CHANNELS 3 Zrotation Xrotation Yrotation
            JOINT HandRight
            {
              OFFSET -2.162980 -4.540425 -1.626298
              CHANNELS 3 Zrotation Xrotation Yrotation
              JOINT HandTipRight
              {
                OFFSET -0.881246 -8.158083 -0.979037
                CHANNELS 3 Zrotation Xrotation Yrotation
                End Site
                {
                  OFFSET 0 0 0
                }
              }
              JOINT ThumbRight
              {
                OFFSET 1.697576 -1.551943 -5.111656
                CHANNELS 3 Zrotation Xrotation Yrotation
                End Site
                {
                  OFFSET 0 0 0
                }
              }
            }
          }
        }
      }
    }
  }
  JOINT HipLeft
  {
    OFFSET -8.460757 0.911155 -2.851750
    CHANNELS 3 Zrotation Xrotation Yrotation
    JOINT KneeLeft
    {
      OFFSET -6.314439 -27.196312 -5.897968
      CHANNELS 3 Zrotation Xrotation Yrotation
      JOINT AnkleLeft
      {
        OFFSET -2.413413 -36.373320 1.108044
        CHANNELS 3 Zrotation Xrotation Yrotation
        JOINT FootLeft
        {
          OFFSET -0.628951 -6.930276 -7.562157
          CHANNELS 3 Zrotation Xrotation Yrotation
          End Site
          {
            OFFSET 0 0 0
          }
        }
      }
    }
  }
  JOINT HipRight
  {
    OFFSET 7.704348 0.430473 -4.360399
    CHANNELS 3 Zrotation Xrotation Yrotation
    JOINT KneeRight
    {
      OFFSET 2.774732 -28.243898 0.114211
      CHANNELS 3 Zrotation Xrotation Yrotation
      JOINT AnkleRight
      {
        OFFSET -0.858995 -36.681995 10.577486
        CHANNELS 3 Zrotation Xrotation Yrotation
        JOINT FootRight
        {
          OFFSET 0.217357 -6.871962 -4.864307
          CHANNELS 3 Zrotation Xrotation Yrotation
          End Site
          {
            OFFSET 0 0 0
          }
        }
      }
    }
  }
}
MOTION
Frames: 13
Frame Time: 0.033333
40.890753 68.145285 400.400330 -3.715353 -7.800875 -11.793594 0.331466 -0.860293 11.403170 0.076272 -0.573404 -0.181295 -7.143078 -0.609337 0.270481 0.000000 0.000000 0.000000 -0.869097 21.065584 -0.117228 74.376275 -21.145333 -7.837003 26.817503 -35.779847 19.747797 2.716033 37.034911 0.417184 0.000000 0.000000 0.000000 0.000000 0.000000 0.000000 10.406951 16.312522 -0.366359 -61.533260 26.106989 17.628670 -27.538137 -52.865446 -21.896625 -24.676827 60.178545 27.183691 0.000000 0.000000 0.000000 0.000000 0.000000 0.000000 -13.846255 26.387649 13.757951 2.916437 -26.750618 1.139239 15.071316 19.814440 -8.960823 0.000000 0.000000 0.000000 7.373935 15.909442 10.923198 -6.705267 -7.224133 -1.032771 -3.084530 -1.234942 2.196712 0.000000 0.000000 0.000000
39.238078 66.078102 399.751618 -4.492700 -9.278828 -15.419695 0.300953 -0.652794 14.895914 -0.052847 -0.233012 -0.206704 -7.408823 -0.266336 0.400439 0.000000 0.000000 0.000000 2.670378 17.213736 -0.432719 72.561174 -23.012983 -11.478577 54.410692 -61.544605 66.103813 47.033597 53.720467 -51.603178 0.000000 0.000000 0.000000 0.000000 0.000000 0.000000 12.464416 11.699287 -1.266006 -63.288932 28.082933 22.314531 -27.379559 -49.468107 -19.636450 -18.847795 63.349851 25.249297 0.000000 0.000000 0.000000 0.000000 0.000000 0.000000 -19.151010 28.093955 19.577676 3.152742 -27.956409 0.268174 16.203334 13.741127 -7.062588 0.000000 0.000000 0.000000 10.482609 18.860298 13.404838 -9.808430 -7.411763 -1.026268 -1.766053 2.862005 0.847771 0.000000 0.000000 0.000000
37.568916 63.936966 399.300540 -5.254950 -11.047722 -18.063803 0.571412 -0.327804 17.357680 0.164709 -0.492689 -0.243013 -8.427402 1.097987 0.744701 0.000000 0.000000 0.000000 5.017849 14.683519 -0.594100 70.249305 -24.480225 -14.795898 64.908465 -65.669019 86.323717 63.566929 45.382433 -69.594122 0.000000 0.000000 0.000000 0.000000 0.000000 0.000000 12.029680 8.029267 -1.973706 -63.142275 29.528310 26.667275 -30.090927 -49.851185 -19.632393 -25.162405 70.108530 35.187680 0.000000 0.000000 0.000000 0.000000 0.000000 0.000000 -23.655087 29.458594 24.369720 2.737188 -28.610175 -0.768408 20.070644 19.383962 -8.839883 0.000000 0.000000 0.000000 13.307550 22.822218 14.617640 -12.693955 -8.835920 -1.103389 0.780301 9.469938 -1.531317 0.000000 0.000000 0.000000
35.676827 61.644860 399.220541 -5.657536 -13.341224 -20.338497 0.566437 -0.002889 19.464887 0.289966 -0.609863 -0.272974 -9.155224 2.731890 1.173771 0.000000 0.000000 0.000000 7.369046 12.900362 -0.837701 66.623705 -25.178179 -17.808101 39.704365 -60.870735 56.162287 60.834411 40.237742 -67.972624 0.000000 0.000000 0.000000 0.000000 0.000000 0.000000 10.455948 5.482971 -2.509225 -61.611864 31.647228 30.292498 -32.406964 -48.401173 -18.922309 -31.976531 74.537303 45.558009 0.000000 0.000000 0.000000 0.000000 0.000000 0.000000 -30.777879 32.243474 30.088398 3.666270 -31.873482 -1.339001 23.500143 25.112923 -10.652164 0.000000 0.000000 0.000000 14.512724 28.807756 15.480903 -14.381813 -12.370144 -1.210766 3.427300 16.567767 -4.892331 0.000000 0.000000 0.000000
34.118673 59.317656 398.740315 -5.228138 -15.095802 -21.760905 0.575862 0.130969 20.865111 0.468197 -0.686458 -0.270459 -10.600519 3.812221 1.585628 0.000000 0.000000 0.000000 7.731755 12.712212 -0.976339 69.257966 -24.248535 -21.662915 36.988395 -60.437498 61.727672 80.294073 15.498566 -99.950972 0.000000 0.000000 0.000000 0.000000 0.000000 0.000000 9.638703 3.411487 -3.099707 -62.901330 33.576318 33.958983 -32.513354 -45.884489 -17.739959 -22.827940 76.099879 39.075003 0.000000 0.000000 0.000000 0.000000 0.000000 0.000000 -41.968466 33.415231 36.900453 8.076008 -36.595809 -1.241391 32.243447 36.390504 -18.898676 0.000000 0.000000 0.000000 14.312121 33.165845 16.084412 -15.252599 -16.053447 -1.153231 7.251963 24.667142 -9.362440 0.000000 0.000000 0.000000
32.001578 57.480332 397.789476 -4.801374 -16.547021 -22.928975 0.597762 0.295663 22.032594 0.664394 -0.727156 -0.268757 -11.929616 4.161622 1.893708 0.000000 0.000000 0.000000 7.673169 12.256322 -0.976662 67.035259 -23.329932 -23.581655 24.912658 -58.300772 50.768743 131.756853 28.199631 -164.668081 0.000000 0.000000 0.000000 0.000000 0.000000 0.000000 9.655091 2.734097 -3.564421 -67.329210 34.897503 37.907898 -28.447922 -45.486949 -17.191382 -9.464609 73.113703 24.490151 0.000000 0.000000 0.000000 0.000000 0.000000 0.000000 -52.026362 33.589246 42.974740 13.237967 -41.650980 -0.165163 43.113500 44.645555 -30.317984 0.000000 0.000000 0.000000 14.211692 36.586828 16.479653 -14.660822 -19.421745 -0.211910 8.814017 33.930792 -13.348673 0.000000 0.000000 0.000000
29.663427 56.095637 396.691332 -3.755671 -18.087516 -22.864377 0.572933 0.231990 22.100249 0.517404 -0.660525 -0.222340 -13.803507 5.599749 2.504514 0.000000 0.000000 0.000000 7.069972 13.176289 -1.036567 60.210423 -22.821338 -21.829450 13.987202 -51.420482 30.859621 -170.384616 50.001570 143.527615 0.000000 0.000000 0.000000 0.000000 0.000000 0.000000 8.796109 2.077222 -3.924607 -69.699513 35.804803 41.059491 -24.934981 -44.578462 -15.918262 -7.390496 70.752473 21.023770 0.000000 0.000000 0.000000 0.000000 0.000000 0.000000 -61.447884 34.025795 47.860961 18.429076 -46.294838 1.589089 62.923557 50.513808 -51.261398 0.000000 0.000000 0.000000 14.410111 39.716654 15.504449 -14.425105 -22.695351 0.698016 12.181208 35.766152 -18.795807 0.000000 0.000000 0.000000
26.874116 55.640947 395.180977 -2.476163 -19.597079 -22.601396 0.341228 0.252728 22.073940 0.497680 -0.574876 -0.180992 -16.297201 6.288251 3.149511 0.000000 0.000000 0.000000 6.822098 13.772449 -1.212929 46.690890 -22.159912 -17.801509 8.862416 -40.223185 9.557024 -109.193837 50.747995 88.145714 0.000000 0.000000 0.000000 0.000000 0.000000 0.000000 7.862385 2.323559 -4.119670 -70.942122 36.048733 42.576906 -23.059907 -43.620767 -15.108043 -3.087006 69.135145 16.639389 0.000000 0.000000 0.000000 0.000000 0.000000 0.000000 -68.799799 34.235711 51.576614 22.984468 -50.168890 3.724401 80.782227 52.166412 -70.572791 0.000000 0.000000 0.000000 13.920617 39.860939 14.850009 -11.515213 -22.990753 2.942230 12.272805 37.837044 -22.413147 0.000000 0.000000 0.000000
23.696818 55.940699 393.303134 -1.180031 -21.005556 -23.096229 0.060810 0.322075 22.851567 0.343774 -0.364250 -0.126024 -18.659833 6.844542 3.792331 0.000000 0.000000 0.000000 4.827250 16.088842 -1.010806 31.311974 -25.605695 -10.354917 8.705082 -22.838290 -8.910158 -65.183665 42.709568 50.743321 0.000000 0.000000 0.000000 0.000000 0.000000 0.000000 7.612171 3.202756 -4.283082 -72.664505 36.070476 43.460847 -23.918021 -45.064284 -16.249002 4.902267 69.170638 9.944088 0.000000 0.000000 0.000000 0.000000 0.000000 0.000000 -75.625834 32.921220 55.064768 28.396445 -53.207453 6.560280 93.545147 48.198835 -85.174477 0.000000 0.000000 0.000000 12.726392 37.629260 15.455958 -7.989862 -20.007254 5.136265 11.272508 35.903092 -24.808974 0.000000 0.000000 0.000000
20.329055 56.885920 391.288819 -0.454724 -22.109537 -24.557985 -0.124478 0.338424 24.490079 0.277600 -0.310219 -0.100499 -17.671065 5.510107 3.451459 0.000000 0.000000 0.000000 3.113443 17.356965 -0.586147 14.508373 -28.870544 -4.920261 12.682604 -13.480365 -20.168417 -44.565323 35.962716 37.188641 0.000000 0.000000 0.000000 0.000000 0.000000 0.000000 8.070798 3.407722 -4.613441 -76.812976 38.208253 46.633357 -28.794764 -47.322931 -20.265455 17.267489 71.829874 1.821930 0.000000 0.000000 0.000000 0.000000 0.000000 0.000000 -79.890248 30.928649 57.537348 32.152188 -54.885039 8.794224 98.566364 41.585961 -91.938478 0.000000 0.000000 0.000000 10.842080 34.235175 17.525267 -3.660404 -14.961942 6.783601 5.942087 29.579143 -23.238339 0.000000 0.000000 0.000000
17.070413 58.285601 389.307999 0.351002 -23.404608 -27.924908 0.402793 -0.040240 27.991741 0.199392 -0.285494 -0.052906 -17.085963 7.142225 3.739877 0.000000 0.000000 0.000000 1.611137 17.780022 -0.125182 0.567962 -29.970254 -1.871776 12.948263 -17.084610 -28.105904 -35.165626 39.712771 35.540509 0.000000 0.000000 0.000000 0.000000 0.000000 0.000000 13.063020 1.861907 -6.287110 -87.872873 37.337155 52.142436 -37.916694 -52.571815 -28.004616 38.054532 74.166791 -15.648567 0.000000 0.000000 0.000000 0.000000 0.000000 0.000000 -82.211615 26.908782 59.146838 31.930286 -54.053334 8.275572 97.667356 32.921179 -91.352065 0.000000 0.000000 0.000000 7.241827 31.280337 22.031514 -0.278562 -9.590296 7.220343 5.686345 23.757516 -24.886325 0.000000 0.000000 0.000000
14.598510 60.375562 387.264844 0.929511 -24.527482 -29.443832 0.758361 -0.281635 29.629171 -0.147306 0.115736 0.018256 -15.215616 8.441455 3.557492 0.000000 0.000000 0.000000 1.193666 16.856150 0.206342 -10.256515 -28.818507 0.753585 -16.396725 -44.925539 -50.990676 -56.058668 66.022323 70.178793 0.000000 0.000000 0.000000 0.000000 0.000000 0.000000 9.988109 2.603674 -5.912119 -81.707486 35.670444 49.654927 -30.808324 -50.131893 -21.474099 26.382730 69.474868 -8.190581 0.000000 0.000000 0.000000 0.000000 0.000000 0.000000 -85.661823 26.834544 61.505641 33.197571 -56.336419 10.216885 93.439415 27.308194 -88.017550 0.000000 0.000000 0.000000 3.304206 26.666681 25.176676 4.297881 -3.398883 6.759891 5.676966 18.110076 -25.580535 0.000000 0.000000 0.000000
12.529683 61.456956 386.424650 1.932854 -26.428194 -26.796950 1.119331 -0.094642 27.175662 -0.155847 0.022045 0.073818 -13.727760 11.044168 3.501474 0.000000 0.000000 0.000000 -0.485801 17.132780 0.751256 -12.995478 -29.429231 1.455232 4.630902 -33.598846 -46.203806 -35.203790 50.241020 44.144802 0.000000 0.000000 0.000000 0.000000 0.000000 0.000000 2.311281 8.006620 -4.014315 -67.380996 32.662546 41.410729 -23.367835 -44.776514 -13.881809 16.535307 63.228532 -2.923534 0.000000 0.000000 0.000000 0.000000 0.000000 0.000000 -78.506530 32.323258 58.840145 21.677097 -51.813078 4.410573 98.291726 22.971393 -93.697870 0.000000 0.000000 0.000000 1.019795 23.687675 23.567427 6.787557 1.449722 5.791118 6.991072 15.215899 -25.833932 0.000000 0.000000 0.000000
